<?xml version="1.0" standalone="no"?><!DOCTYPE svg PUBLIC "-//W3C//DTD SVG 1.1//EN" "http://www.w3.org/Graphics/SVG/1.1/DTD/svg11.dtd"><svg class="icon" width="200px" height="200.00px" viewBox="0 0 1024 1024" version="1.1" xmlns="http://www.w3.org/2000/svg"><path d="M529 697.4v82.5c0 43.3 32.4 80.1 75.4 85 42.4 4.9 70.2 13.1 70.2 22.2 0 15-72.7 27-162.3 27-89.6 0-162.3-12.1-162.3-27 0-9.2 27.8-17.4 70.2-22.3 43.1-5 75.4-41.7 75.4-85v-82.5c-169.8-8.7-304.9-149.1-304.9-321.1l22.7-224.9c4.2-41.2 38.9-72.7 80.4-72.7h436.9c41.5 0 76.2 31.4 80.4 72.7l22.7 224.9c0 172.1-135 312.5-304.8 321.2z" fill="#FCECDB" /><path d="M512.3 926.2c-44 0-85.5-2.9-116.7-8.1-40.4-6.7-57.6-16-57.6-31 0-12.3 9.6-26 80.8-34.2 36.9-4.3 64.8-35.7 64.8-73.1v-71.2C311.7 694 178.7 550.2 178.7 376.2c0-0.4 0-0.8 0.1-1.2l22.7-224.9c4.9-47.6 44.6-83.5 92.4-83.5h436.9c47.8 0 87.5 35.9 92.3 83.5L845.8 375c0 0.4 0.1 0.8 0.1 1.2 0 173.9-133 317.7-304.9 332.4v71.3c0 37.4 27.9 68.8 64.8 73.1 71.2 8.2 80.8 21.9 80.8 34.2 0 15-17.2 24.3-57.6 31-31.3 5.2-72.7 8-116.7 8z m-143.6-38.9c18.6 6.7 66.8 14.9 143.5 14.9s124.9-8.3 143.5-14.9c-8.1-2.9-23.6-7-52.8-10.4-49.1-5.7-86.1-47.4-86.1-97v-82.5c0-6.4 5-11.7 11.4-12 164.4-8.4 293.1-143.9 293.5-308.5L799 152.7c-3.5-35.3-33-61.9-68.4-61.9H293.8c-35.4 0-64.9 26.6-68.5 61.9l-22.7 224.2C203 541.6 331.8 677 496.2 685.4c6.4 0.3 11.4 5.6 11.4 12v82.5c0 49.6-37 91.3-86.1 97-29.1 3.3-44.7 7.4-52.8 10.4z" fill="#59285E" /><path d="M826.6 304.2l7.3 72.1c0 177.6-144 321.6-321.6 321.6-177.6 0-321.6-144-321.6-321.6l7.3-71.9 218-0.1" fill="#FD3426" /><path d="M512.3 709.8c-183.9 0-333.6-149.6-333.6-333.6 0-0.4 0-0.8 0.1-1.2l7.3-71.9c0.6-6.1 5.8-10.8 12-10.8l218-0.1c6.6 0 12 5.4 12 12s-5.4 12-12 12l-207.1 0.1-6.1 60.5c0.3 170.4 139.1 308.9 309.5 308.9s309.2-138.5 309.5-308.9l-7.2-71.5c-0.7-6.6 4.1-12.5 10.8-13.2 6.7-0.6 12.5 4.2 13.2 10.8L846 375c0 0.4 0.1 0.8 0.1 1.2-0.2 184-149.9 333.6-333.8 333.6z" fill="#59285E" /></svg>