<?xml version="1.0" standalone="no"?><!DOCTYPE svg PUBLIC "-//W3C//DTD SVG 1.1//EN" "http://www.w3.org/Graphics/SVG/1.1/DTD/svg11.dtd"><svg class="icon" width="200px" height="200.00px" viewBox="0 0 1024 1024" version="1.1" xmlns="http://www.w3.org/2000/svg"><path fill="#e8b330" d="M512 741.3c-17.8 0-31.7-13.9-31.7-31.7v-60.1h-97.1c-17.8 0-31.7-13.9-31.7-31.7 0-17.8 13.9-31.7 31.7-31.7h97.1v-46h-97.1c-17.8 0-31.7-13.9-31.7-31.7 0-17.8 13.9-31.7 31.7-31.7h93.6l-99-99c-6.3-6.3-9.5-13.8-9.5-22.3 0-8.9 3.5-17.1 9.6-22.4l0.1-0.1 0.1-0.1c6.2-6 13.6-9.1 21.9-9.1 8.9 0 17.1 3.5 22.4 9.5l0.1 0.2 89.4 88.7 88.9-89.7c6.4-6.4 13.7-9.5 22.3-9.5 9 0 17.1 3.5 22.4 9.6l0.1 0.1 0.1 0.1c6 6.2 9.3 14.5 9.1 22.9-0.2 8.2-3.5 15.8-9.5 21.3l-0.2 0.2-98.1 99.4h93.8c17.8 0 31.7 13.9 31.7 31.7 0 17.8-13.9 31.7-31.7 31.7h-97.1v46h97.1c17.8 0 31.7 13.9 31.7 31.7 0 17.8-13.9 31.7-31.7 31.7h-97.1v60.1c0 17.7-14.2 31.9-31.7 31.9z"  /><path fill="#e8b330" d="M512 960.5c-60.5 0-119.3-11.9-174.6-35.3-53.4-22.6-101.4-54.9-142.5-96.1-41.2-41.2-73.5-89.1-96.1-142.6-23.4-55.3-35.3-114.1-35.3-174.6s11.9-119.3 35.3-174.6c22.6-53.4 54.9-101.4 96.1-142.6 41.1-41 89.1-73.4 142.5-96C392.7 75.4 451.5 63.5 512 63.5s119.3 11.9 174.6 35.2c53.4 22.6 101.4 54.9 142.6 96.1s73.5 89.1 96.1 142.6c23.4 55.3 35.3 114.1 35.3 174.6s-11.9 119.3-35.3 174.6c-22.7 53.4-55 101.4-96.2 142.6-41.2 41.2-89.1 73.5-142.6 96.1-55.2 23.3-114 35.2-174.5 35.2z m0-832c-211.5 0-383.5 172-383.5 383.5s172 383.5 383.5 383.5 383.5-172 383.5-383.5-172-383.5-383.5-383.5z"  /></svg>