<?xml version="1.0" standalone="no"?><!DOCTYPE svg PUBLIC "-//W3C//DTD SVG 1.1//EN" "http://www.w3.org/Graphics/SVG/1.1/DTD/svg11.dtd"><svg class="icon" width="200px" height="200.00px" viewBox="0 0 1024 1024" version="1.1" xmlns="http://www.w3.org/2000/svg"><path fill="#333333" d="M731.667378 585.253379a73.124315 73.124315 0 0 1-51.918264-21.206051 73.124315 73.124315 0 0 1 0-103.836527L774.810723 365.880435H73.548543a73.124315 73.124315 0 0 1 0-146.24863h701.26218l-95.061609-94.330366A73.124315 73.124315 0 0 1 783.585641 21.464911l219.372945 219.372945a73.124315 73.124315 0 0 1 0 103.836527l-219.372945 219.372945A73.124315 73.124315 0 0 1 731.667378 585.253379z"  /><path fill="#333333" d="M292.921488 1023.999269a73.124315 73.124315 0 0 1-51.918263-21.206052l-219.372945-219.372944a73.124315 73.124315 0 0 1 0-103.836527l219.372945-219.372945a73.124315 73.124315 0 0 1 103.836527 103.836527L249.778142 658.377694H951.040322a73.124315 73.124315 0 0 1 0 146.24863H249.778142l95.06161 94.330366a73.124315 73.124315 0 0 1 0 103.836527A73.124315 73.124315 0 0 1 292.921488 1023.999269z"  /></svg>